<svg xmlns="http://www.w3.org/2000/svg" width="15" height="15" viewBox="0 0 15 15">
  <path id="Path_15833" data-name="Path 15833" d="M8.55-9.8A7.211,7.211,0,0,0,.943-2.33c0,4.556,3.041,7.527,7.7,7.527a10.512,10.512,0,0,0,3.078-.4V3.91a9.7,9.7,0,0,1-3.068.4c-4.03,0-6.7-2.629-6.7-6.6A6.349,6.349,0,0,1,8.466-8.911c3.826,0,6.46,2.359,6.46,5.789,0,2.35-.776,3.8-2.043,3.8a1.186,1.186,0,0,1-1.3-1.333V-5.832H10.509v1.27h-.12A2.413,2.413,0,0,0,8.1-6.012c-1.895,0-3.226,1.54-3.226,3.745,0,2.26,1.312,3.8,3.226,3.8A2.45,2.45,0,0,0,10.49-.061h.12A1.926,1.926,0,0,0,12.7,1.6C14.7,1.6,15.943-.2,15.943-3.1,15.943-7.057,12.912-9.8,8.55-9.8Zm-.3,4.754c1.368,0,2.237,1.071,2.237,2.764,0,1.72-.878,2.836-2.246,2.836S6.008-.538,6.008-2.24,6.9-5.049,8.254-5.049Z" transform="translate(-0.943 9.803)" fill="#d0d0d0"/>
</svg>
