<svg xmlns="http://www.w3.org/2000/svg" xmlns:xlink="http://www.w3.org/1999/xlink" width="30" height="30" viewBox="0 0 30 30">
  <defs>
    <clipPath id="clip-path">
      <rect id="Rectangle_4652" data-name="Rectangle 4652" width="30" height="30" transform="translate(309 135)" fill="none"/>
    </clipPath>
  </defs>
  <g id="Mask_Group_292" data-name="Mask Group 292" transform="translate(-309 -135)" clip-path="url(#clip-path)">
    <g id="steering-wheel-4" transform="translate(306.628 132.179)">
      <path id="Path_21298" data-name="Path 21298" d="M17.372,2.821a15,15,0,1,0,15,15,15.017,15.017,0,0,0-15-15Zm0,29.254A14.254,14.254,0,1,1,31.627,17.821,14.271,14.271,0,0,1,17.372,32.076Z" fill="#686868"/>
      <path id="Path_21299" data-name="Path 21299" d="M17.372,6.151a11.67,11.67,0,1,0,11.67,11.67,11.683,11.683,0,0,0-11.67-11.67Zm0,.746a10.944,10.944,0,0,1,10.61,8.319q-.276-.121-.568-.244a26.34,26.34,0,0,0-9.841-2.139h-.4a26.34,26.34,0,0,0-9.841,2.139q-.293.122-.568.244A10.944,10.944,0,0,1,17.372,6.9ZM6.508,18.974c1.389-.558,3.918-1.308,4.649-.311a1.635,1.635,0,0,1,.353,1.462c-.271.955-1.523,1.94-3.724,2.931a10.843,10.843,0,0,1-1.278-4.082Zm10.864,9.772a10.86,10.86,0,0,1-5.953-1.769l.575-2.3A.371.371,0,0,0,12,24.635c0-.02.419-1.988,5.348-1.988H17.4c4.93,0,5.345,1.975,5.348,1.988a.2.2,0,0,0,.007.038l.575,2.3A10.86,10.86,0,0,1,17.372,28.746Zm9.586-5.689c-2.2-.992-3.453-1.976-3.724-2.931a1.635,1.635,0,0,1,.353-1.462c.731-1,3.261-.248,4.649.311a10.842,10.842,0,0,1-1.278,4.082Zm-.275-5.38c-1.846-.467-3.09-.283-3.7.546a2.361,2.361,0,0,0-.469,2.106c.334,1.174,1.665,2.282,4.059,3.373a11.013,11.013,0,0,1-2.6,2.814l-.5-2.011c-.056-.291-.672-2.6-6.081-2.6h-.046c-5.409,0-6.025,2.312-6.081,2.6l-.5,2.011a11.013,11.013,0,0,1-2.6-2.814c2.394-1.09,3.725-2.2,4.059-3.373a2.361,2.361,0,0,0-.469-2.106c-.608-.829-1.852-1.012-3.7-.546a14.219,14.219,0,0,0-1.606.518c0-.124-.007-.249-.007-.374a10.961,10.961,0,0,1,.133-1.7,26.171,26.171,0,0,1,10.591-2.541h.4a26.186,26.186,0,0,1,10.592,2.542,10.96,10.96,0,0,1,.133,1.7c0,.125,0,.25-.007.374a14.219,14.219,0,0,0-1.606-.518Z" fill="#686868"/>
      <path id="Path_21300" data-name="Path 21300" d="M17.372,14.713a3.108,3.108,0,1,0,3.108,3.108,3.112,3.112,0,0,0-3.108-3.108Zm0,5.47a2.362,2.362,0,1,1,2.362-2.362A2.365,2.365,0,0,1,17.372,20.184Z" fill="#686868"/>
    </g>
  </g>
</svg>
