<svg xmlns="http://www.w3.org/2000/svg" xmlns:xlink="http://www.w3.org/1999/xlink" width="30" height="30" viewBox="0 0 30 30">
  <defs>
    <clipPath id="clip-path">
      <rect id="Rectangle_4652" data-name="Rectangle 4652" width="30" height="30" transform="translate(285 135)" fill="none"/>
    </clipPath>
  </defs>
  <g id="Mask_Group_290" data-name="Mask Group 290" transform="translate(-285 -135)" clip-path="url(#clip-path)">
    <path id="helmet-3" d="M28.981,14.549a13.046,13.046,0,0,0-9.019-11.92A2,2,0,0,0,18,1H14a2,2,0,0,0-1.962,1.629A13.046,13.046,0,0,0,3.019,14.547,2.5,2.5,0,0,0,3.5,19.5H4.65A11.554,11.554,0,0,0,5.9,22.366L4.16,24.691a.5.5,0,0,0,.048.654l2.8,2.775a.5.5,0,0,0,.657.042l2.3-1.771a11.862,11.862,0,0,0,3.174,1.3l.393,2.875a.5.5,0,0,0,.5.432h3.94a.5.5,0,0,0,.5-.432l.393-2.875a11.761,11.761,0,0,0,3.293-1.376l2.324,1.738a.5.5,0,0,0,.655-.048l2.775-2.8a.5.5,0,0,0,.042-.656l-1.77-2.307A11.559,11.559,0,0,0,27.356,19.5H28.5a2.5,2.5,0,0,0,.481-4.951ZM12,3.694V10.5a.5.5,0,0,0,1,0V3a1,1,0,0,1,1-1h4a1,1,0,0,1,1,1v7.5a.5.5,0,0,0,1,0V3.694A12.055,12.055,0,0,1,27.99,14.5H4.01A12.055,12.055,0,0,1,12,3.694ZM25.149,22.006a.5.5,0,0,0,.025.573l1.714,2.234-2.162,2.181L22.475,25.31a.5.5,0,0,0-.573-.018A10.761,10.761,0,0,1,18.3,26.8a.5.5,0,0,0-.388.42L17.534,30H14.466l-.381-2.783a.5.5,0,0,0-.388-.42A10.881,10.881,0,0,1,10.2,25.363a.5.5,0,0,0-.572.026L7.4,27.1,5.221,24.941c2.773-3.74,1.744-1.524.472-5.441H8.167a8.51,8.51,0,0,0,15.666,0h2.48a10.562,10.562,0,0,1-1.164,2.506ZM9.262,19.5H22.738a7.513,7.513,0,0,1-13.475,0Zm20.3-1.441A1.51,1.51,0,0,1,28.5,18.5H3.5a1.5,1.5,0,1,1,0-3h25A1.51,1.51,0,0,1,29.564,18.059Z" transform="translate(284 134)" fill="#686868"/>
  </g>
</svg>
