<svg xmlns="http://www.w3.org/2000/svg" xmlns:xlink="http://www.w3.org/1999/xlink" width="30" height="30" viewBox="0 0 30 30">
  <defs>
    <clipPath id="clip-path">
      <rect id="Rectangle_4654" data-name="Rectangle 4654" width="30" height="30" transform="translate(28)" fill="none"/>
    </clipPath>
  </defs>
  <g id="Mask_Group_299" data-name="Mask Group 299" transform="translate(-28)" clip-path="url(#clip-path)">
    <g id="_x31_34" transform="translate(26.438 -1.563)">
      <path id="Path_21315" data-name="Path 21315" d="M8.655,13.527a21.08,21.08,0,0,0-.62,4.411l1.245.717a2.189,2.189,0,0,1,1,1.745l-.005,3.1a17.453,17.453,0,0,0,4.184,1.153c.063-.592.358-2.736.578-3.894a30.776,30.776,0,0,1,2.321-7.7A10.672,10.672,0,0,1,26.022,7.5c-2.531-2.221-6.5-3.863-10.185-2.579C11.481,6.432,9.7,9.758,8.655,13.527Z" fill="#686868"/>
      <path id="Path_21316" data-name="Path 21316" d="M17.928,13.373a30.114,30.114,0,0,0-2.254,7.515c-.173.916-.453,2.8-.565,3.856a22.314,22.314,0,0,0,6.259-.136,17.031,17.031,0,0,0,5.505-1.934c2.17-1.3,3.46-3,3.631-4.779a13.05,13.05,0,0,0-3.8-9.76A9.991,9.991,0,0,0,17.928,13.373Z" fill="#686868"/>
      <path id="Path_21317" data-name="Path 21317" d="M6.985,23.318l2.277,1.318c.243.14.355.077.358-.2L9.626,20.4v0a1.547,1.547,0,0,0-.675-1.177L6.679,17.91c-.239-.137-.36-.091-.36.2l-.013,4.039A1.545,1.545,0,0,0,6.985,23.318Zm.049-3.836c0-.088.025-.134.047-.146a.068.068,0,0,1,.034-.007.26.26,0,0,1,.123.041l1.286.741a.876.876,0,0,1,.382.666v0l0,2.284c0,.089-.027.136-.05.149s-.076.011-.153-.033L7.41,22.431a.874.874,0,0,1-.384-.662Z" fill="#686868"/>
      <path id="Path_21318" data-name="Path 21318" d="M5.006,18.452a5.11,5.11,0,0,0,.655,1.5l.006-1.845A.835.835,0,0,1,7,17.343l.4.233a20.418,20.418,0,0,1,.621-4.224c1-3.613,2.5-6.658,6.438-8.557A13.065,13.065,0,0,0,4.885,17.412a4.433,4.433,0,0,0,.122,1.039Z" fill="#686868"/>
      <path id="Path_21319" data-name="Path 21319" d="M31.454,19.324a2.27,2.27,0,0,0-.4-.723c0,.018-.012.035-.016.053a7.9,7.9,0,0,1-3.826,4.58A17.52,17.52,0,0,1,21.5,25.246a21.5,21.5,0,0,1-11.224-1.033v.223a.837.837,0,0,1-1.337.765L6.658,23.883a2.186,2.186,0,0,1-1-1.737l0-1.086A6.287,6.287,0,0,1,4.528,19.1c-.116.1-.234.2-.349.309a10.263,10.263,0,0,0-2,2.305A3.779,3.779,0,0,0,1.84,25.17a5.1,5.1,0,0,0,2.834,2.2,18.322,18.322,0,0,0,10.366.922,87.188,87.188,0,0,0,13.143-4.539,7.886,7.886,0,0,0,2.572-1.735A2.865,2.865,0,0,0,31.454,19.324Z" fill="#686868"/>
    </g>
  </g>
</svg>
