<svg xmlns="http://www.w3.org/2000/svg" width="25" height="25" viewBox="0 0 25 25">
  <g id="Group_10092" data-name="Group 10092" transform="translate(-244 -793)">
    <path id="Path_21328" data-name="Path 21328" d="M21.268,2.923H1.227A1.228,1.228,0,0,0,0,4.149V17.51a1.228,1.228,0,0,0,1.227,1.227H8.3l-.32,2.557H7.49a.391.391,0,1,0,0,.783H9.577a.391.391,0,0,0,0-.783H8.768l.32-2.557h.49a.391.391,0,1,0,0-.783H1.227a.444.444,0,0,1-.444-.444V16.232H9.577a.391.391,0,1,0,0-.783H.783V4.149a.444.444,0,0,1,.444-.444H21.268a.444.444,0,0,1,.444.444V12.5a.391.391,0,0,0,.783,0V4.149A1.228,1.228,0,0,0,21.268,2.923Z" transform="translate(244 793)" fill="#686868"/>
    <path id="Path_21329" data-name="Path 21329" d="M17.928,10.438H12.082a1.228,1.228,0,0,0-1.227,1.227v9.186a1.228,1.228,0,0,0,1.227,1.227h5.846a1.228,1.228,0,0,0,1.227-1.227V11.665A1.228,1.228,0,0,0,17.928,10.438Zm.444,10.412a.444.444,0,0,1-.444.444H12.082a.444.444,0,0,1-.444-.444v-.444h6.733v.444Zm0-1.227H11.639V12.891h6.733v6.733Zm0-7.516H11.639v-.444a.444.444,0,0,1,.444-.444h5.846a.444.444,0,0,1,.444.444Z" transform="translate(244 793)" fill="#686868"/>
    <path id="Path_21330" data-name="Path 21330" d="M23.773,13.779H21.268a1.228,1.228,0,0,0-1.227,1.227v5.846a1.228,1.228,0,0,0,1.227,1.227h2.505A1.228,1.228,0,0,0,25,20.851V15.005A1.228,1.228,0,0,0,23.773,13.779Zm.444,7.072a.444.444,0,0,1-.444.444H21.268a.444.444,0,0,1-.444-.444v-.444h3.392v.444Zm0-1.227H20.825V16.232h3.392Zm0-4.175H20.825v-.444a.444.444,0,0,1,.444-.444h2.505a.444.444,0,0,1,.444.444v.444Z" transform="translate(244 793)" fill="#686868"/>
    <rect id="Rectangle_4656" data-name="Rectangle 4656" width="25" height="25" transform="translate(244 793)" fill="none"/>
  </g>
</svg>
