<svg xmlns="http://www.w3.org/2000/svg" width="11.639" height="10.355" viewBox="0 0 11.639 10.355">
  <g id="Group_2737" data-name="Group 2737" transform="translate(-282 -218.645)">
    <g id="one-finger-tap-gesture-of-outlined-hand-symbol" transform="translate(210.821 218)">
      <g id="Group_2736" data-name="Group 2736" transform="translate(75.359)">
        <path id="Path_13756" data-name="Path 13756" d="M157.045,39.7a1.452,1.452,0,0,0-2.9,0,1.4,1.4,0,0,0,.323.9v-.9a1.129,1.129,0,0,1,2.258,0v.9A1.4,1.4,0,0,0,157.045,39.7Z" transform="translate(-152.813 -37.605)" fill="#5d5c5d"/>
        <path id="Path_13757" data-name="Path 13757" d="M82.011,79.726a.792.792,0,0,0-.484.161h0a.8.8,0,0,0-.806-.806.876.876,0,0,0-.548.194.8.8,0,0,0-1.226-.355V77.306a.806.806,0,1,0-1.613,0v2.871c-.645-.581-1.355-1.032-1.806-.581-.645.645.71,1.9,1.742,3.806a3.136,3.136,0,0,0,2.806,1.806,2.74,2.74,0,0,0,2.742-2.742V80.532A.8.8,0,0,0,82.011,79.726Zm.484,1.516v1.226a2.48,2.48,0,0,1-2.419,2.419,2.834,2.834,0,0,1-2.516-1.613c-1.258-2.129-2.161-3.1-1.806-3.452s1.226.419,1.9,1.129V77.306a.484.484,0,1,1,.968,0v3.387h.323V79.565a.484.484,0,1,1,.968,0v.806h.323v-.484a.484.484,0,0,1,.968,0v.806h.323v-.161a.484.484,0,0,1,.968,0v.71Z" transform="translate(-75.359 -75.21)" fill="#5d5c5d"/>
      </g>
    </g>
    <line id="Line_699" data-name="Line 699" y2="7" transform="translate(284.5 219)" fill="none" stroke="#5d5c5d" stroke-linecap="round" stroke-width="0.4"/>
    <path id="Polygon_9" data-name="Polygon 9" d="M2.116.461a.5.5,0,0,1,.768,0L4.317,2.18A.5.5,0,0,1,3.932,3H1.068a.5.5,0,0,1-.384-.82Z" transform="translate(287 229) rotate(180)" fill="#5d5c5d"/>
  </g>
</svg>
