<svg xmlns="http://www.w3.org/2000/svg" xmlns:xlink="http://www.w3.org/1999/xlink" width="30" height="30" viewBox="0 0 30 30">
  <g id="Mask_Group_296" data-name="Mask Group 296" transform="translate(-39)">
    <g id="cardiogram" transform="translate(39)">
      <path id="Path_21310" data-name="Path 21310" d="M14.991,3.955A8.853,8.853,0,0,0,0,10.073a8.846,8.846,0,0,0,1.464,4.986H7.932l1.15-1.917a.879.879,0,0,1,1.5-.02L13,16.936l3.537-7.467a.88.88,0,0,1,1.568-.04l3.032,5.631h7.376c5.464-8.54-5.335-18.269-13.526-11.1Z" fill="#686868"/>
      <path id="Path_21311" data-name="Path 21311" d="M19.842,16.355l-2.457-4.563-3.474,7.335a.879.879,0,0,1-1.536.1L9.858,15.266,9.183,16.39a.879.879,0,0,1-.754.427H2.856c.175.183-.756-.746,11.516,11.462a.879.879,0,0,0,1.24,0C27.694,16.258,26.952,17,27.127,16.817H20.616a.879.879,0,0,1-.774-.462Z" fill="#686868"/>
    </g>
  </g>
</svg>
