<svg xmlns="http://www.w3.org/2000/svg" xmlns:xlink="http://www.w3.org/1999/xlink" width="30" height="30" viewBox="0 0 30 30">
  <defs>
    <clipPath id="clip-path">
      <rect id="Rectangle_4652" data-name="Rectangle 4652" width="30" height="30" transform="translate(276 135)" fill="none"/>
    </clipPath>
  </defs>
  <g id="Mask_Group_288" data-name="Mask Group 288" transform="translate(-276 -135)" clip-path="url(#clip-path)">
    <g id="heart-6" transform="translate(276 135)">
      <g id="Group_10019" data-name="Group 10019">
        <path id="Path_21292" data-name="Path 21292" d="M29.487,14.544H26.949A8.037,8.037,0,0,0,27.49,8.9a6.788,6.788,0,0,0-6.416-4.876,8.022,8.022,0,0,0-2.766.513,14.347,14.347,0,0,0-3.194,1.6,13.692,13.692,0,0,0-3.194-1.6,8.145,8.145,0,0,0-2.766-.513A6.788,6.788,0,0,0,2.738,8.9a8.277,8.277,0,0,0,.8,6.16H.456a.456.456,0,1,0,0,.913H4.078a6.02,6.02,0,0,0,.513.77c2.966,4.278,9.411,8.926,10.58,9.211v.029a.088.088,0,0,0,.057-.029h.086v-.029c1-.485,7.186-4.477,10.437-9.211a10.492,10.492,0,0,0,.8-1.283h2.994A.45.45,0,0,0,30,14.971.479.479,0,0,0,29.487,14.544Zm-4.563,1.683c-3.023,4.42-8.584,7.985-9.781,8.755-1.226-.77-6.759-4.363-9.81-8.755l-.171-.257H9.354a.47.47,0,0,0,.428-.257l1.911-3.764,2.994,7.671a.467.467,0,0,0,.428.285h.029a.454.454,0,0,0,.428-.342l2.624-8.983,1.4,4.534a.465.465,0,0,0,.371.314.494.494,0,0,0,.456-.2L21.53,13.6l.941,1.6a.455.455,0,0,0,.4.228h2.567C25.266,15.713,25.1,15.97,24.924,16.226Zm1.027-1.683H23.156l-1.169-2a.455.455,0,0,0-.4-.228.432.432,0,0,0-.4.2l-.97,1.426L18.65,8.84a.529.529,0,0,0-.456-.342.488.488,0,0,0-.456.342l-2.652,9.154-2.88-7.357a.429.429,0,0,0-.4-.285.442.442,0,0,0-.428.257l-2.253,4.42H4.591A7.7,7.7,0,0,1,3.65,9.154,5.826,5.826,0,0,1,9.183,4.962a7.586,7.586,0,0,1,2.452.456,13.863,13.863,0,0,1,3.222,1.654.434.434,0,0,0,.57,0A12.433,12.433,0,0,1,18.65,5.418,6.894,6.894,0,0,1,21.1,4.962a5.854,5.854,0,0,1,5.532,4.192A7.5,7.5,0,0,1,25.951,14.544Z" fill="#686868"/>
      </g>
    </g>
  </g>
</svg>
