<svg xmlns="http://www.w3.org/2000/svg" xmlns:xlink="http://www.w3.org/1999/xlink" width="30" height="30" viewBox="0 0 30 30">
  <defs>
    <clipPath id="clip-path">
      <rect id="Rectangle_4650" data-name="Rectangle 4650" width="30" height="30" transform="translate(1633 38)" fill="#686868"/>
    </clipPath>
  </defs>
  <g id="Mask_Group_285" data-name="Mask Group 285" transform="translate(-1633 -38)" clip-path="url(#clip-path)">
    <g id="Love" transform="translate(1631.993 36.999)">
      <path id="Path_21279" data-name="Path 21279" d="M30.4,8.071a8.756,8.756,0,0,0-6.855-5.5,8.193,8.193,0,0,0-7.54,3.245,8.191,8.191,0,0,0-7.55-3.238A8.743,8.743,0,0,0,1.613,8.071a8.837,8.837,0,0,0,2.04,9.519l12,11.77a.5.5,0,0,0,.7,0l12-11.77A8.837,8.837,0,0,0,30.4,8.071Zm-2.741,8.8L16.007,28.3,4.353,16.876A7.839,7.839,0,0,1,2.545,8.432,7.731,7.731,0,0,1,8.591,3.569a6.9,6.9,0,0,1,.919-.062,7.589,7.589,0,0,1,6.1,3.418.519.519,0,0,0,.8,0c1.869-2.525,4.356-3.716,7-3.363a7.743,7.743,0,0,1,6.056,4.87,7.839,7.839,0,0,1-1.808,8.443Z" fill="#686868"/>
    </g>
  </g>
</svg>
