<svg xmlns="http://www.w3.org/2000/svg" xmlns:xlink="http://www.w3.org/1999/xlink" width="30" height="30" viewBox="0 0 30 30">
  <defs>
    <clipPath id="clip-path">
      <rect id="Rectangle_4654" data-name="Rectangle 4654" width="30" height="30" transform="translate(5)" fill="none"/>
    </clipPath>
  </defs>
  <g id="Mask_Group_302" data-name="Mask Group 302" transform="translate(-5)" clip-path="url(#clip-path)">
    <g id="Ikon" transform="translate(2.835 -2.015)">
      <path id="Path_21324" data-name="Path 21324" d="M31.974,14.861a1.074,1.074,0,0,1-1.493.271L17.758,6.324a1.077,1.077,0,0,0-1.222,0L3.85,15.131a1.073,1.073,0,1,1-1.224-1.762L15.312,4.562a3.234,3.234,0,0,1,3.667,0L31.7,13.368a1.073,1.073,0,0,1,.271,1.493Zm-4.437-.092L17.762,8.227a1.071,1.071,0,0,0-1.193,0L6.793,14.769a3.213,3.213,0,0,0-1.428,2.675V26.82a3.222,3.222,0,0,0,3.218,3.218h4.291V23.6a3.218,3.218,0,0,1,3.218-3.218h2.146A3.218,3.218,0,0,1,21.456,23.6v6.437h4.291a3.222,3.222,0,0,0,3.218-3.218V17.444a3.213,3.213,0,0,0-1.428-2.675Zm1.428-8.332A2.146,2.146,0,0,0,26.82,4.291H25.747A2.137,2.137,0,0,0,23.9,5.358l5.063,3.505Z" fill="#686868"/>
    </g>
  </g>
</svg>
