<svg xmlns="http://www.w3.org/2000/svg" xmlns:xlink="http://www.w3.org/1999/xlink" width="30" height="30" viewBox="0 0 30 30">
  <defs>
    <clipPath id="clip-path">
      <rect id="Rectangle_4652" data-name="Rectangle 4652" width="30" height="30" transform="translate(305 135)" fill="none"/>
    </clipPath>
  </defs>
  <g id="Mask_Group_294" data-name="Mask Group 294" transform="translate(-305 -135)" clip-path="url(#clip-path)">
    <path id="home-4" d="M29.811,12.626,20.425,3.738a5.632,5.632,0,0,0-7.737,0L3.3,12.628a5.463,5.463,0,0,0-1.744,4.084v8.565a5.635,5.635,0,0,0,5.621,5.636H25.935a5.635,5.635,0,0,0,5.621-5.636V16.712a5.462,5.462,0,0,0-1.745-4.086ZM20.622,29.878H12.491V23.15a2.36,2.36,0,0,1,2.357-2.357h3.417a2.36,2.36,0,0,1,2.357,2.357v6.728Zm9.9-4.6a4.6,4.6,0,0,1-4.586,4.6H21.657V23.15a3.4,3.4,0,0,0-3.392-3.392H14.847a3.4,3.4,0,0,0-3.392,3.392v6.728H7.177a4.6,4.6,0,0,1-4.587-4.6V16.712a4.462,4.462,0,0,1,1.422-3.335L13.4,4.489a4.6,4.6,0,0,1,6.314,0L29.1,13.375a4.463,4.463,0,0,1,1.425,3.337v8.565Z" transform="translate(303.444 133.444)" fill="#686868"/>
  </g>
</svg>
