<svg xmlns="http://www.w3.org/2000/svg" xmlns:xlink="http://www.w3.org/1999/xlink" width="30" height="30" viewBox="0 0 30 30">
  <defs>
    <clipPath id="clip-path">
      <rect id="Rectangle_4654" data-name="Rectangle 4654" width="30" height="30" transform="translate(20)" fill="none"/>
    </clipPath>
  </defs>
  <g id="Mask_Group_295" data-name="Mask Group 295" transform="translate(-20)" clip-path="url(#clip-path)">
    <g id="food-service" transform="translate(17.146 -2.23)">
      <path id="Path_21308" data-name="Path 21308" d="M28.9,16.955A11.334,11.334,0,0,0,25.634,8.11a10.982,10.982,0,0,0-6.319-3.123,1.887,1.887,0,0,0-1.668-2.755,1.9,1.9,0,0,0-1.64,2.811A11.112,11.112,0,0,0,6.782,15.979s0,1.032,0,1.032L28.9,16.955Z" fill="#686868"/>
      <path id="Path_21309" data-name="Path 21309" d="M30.832,18.355a.991.991,0,0,0-.708-.29l-24.558.067a1,1,0,0,0,0,2s6.366-.015,6.369-.017c-.045.161-.318,2.627-.318,2.627a3.623,3.623,0,0,0-1.623,2.9L8.857,26.4a1.26,1.26,0,0,0-1.283.178l-1,.792a.558.558,0,0,0-.095.781l3.006,3.865a.559.559,0,0,0,.786.095l1.01-.8a1.284,1.284,0,0,0,.435-1.361l2.376-1.88a1.81,1.81,0,0,1,.708-.329,5.061,5.061,0,0,0,3.062-2.772,1.649,1.649,0,0,1,.614-.625l4.97-2.884a1.921,1.921,0,0,0,.937-1.378l5.75-.017a1.008,1.008,0,0,0,.7-1.712ZM15.55,20.107l3.531-.011c-.862.518-2.608,1.56-3.464,2.075l-.006-.948a4.788,4.788,0,0,0-.061-1.115Zm7.334.39-1.221.708-3.754,2.175a2.82,2.82,0,0,0-1.026,1.054c-.926,1.668-1.868,2.108-2.348,2.225A2.905,2.905,0,0,0,13.4,27.2L11.11,29.008,9.682,27.185l1.16-.77a.545.545,0,0,0,.251-.457A2.512,2.512,0,0,1,12.36,23.6a.559.559,0,0,0,.329-.452l.229-1.924c.059-.267.027-.911.245-1.115H14.34c.224.235.143.82.156,1.115l.006,1.924a.563.563,0,0,0,.842.48l5.923-3.542,1.969-.006a.844.844,0,0,1-.351.413Z" fill="#686868"/>
    </g>
  </g>
</svg>
