<svg xmlns="http://www.w3.org/2000/svg" width="30" height="29.996" viewBox="0 0 30 29.996">
  <g id="_x31_0_Catering" transform="translate(0 0.002)">
    <g id="Group_10016" data-name="Group 10016">
      <path id="Path_21285" data-name="Path 21285" d="M28.846,19.137h-.182A13.686,13.686,0,0,0,16.242,5.818a1.65,1.65,0,0,0,.428-1.107,1.67,1.67,0,1,0-2.912,1.107A13.691,13.691,0,0,0,1.336,19.137H1.154A1.152,1.152,0,0,0,0,20.285a1.929,1.929,0,0,0,1.928,1.928h11.25c-.352,1.963-1.3,6.123-5.373,7.16H5.49a.311.311,0,1,0,0,.621H24.516a.311.311,0,0,0,0-.621H22.2c-4.072-1.037-5.027-5.2-5.373-7.16h11.25A1.929,1.929,0,0,0,30,20.285a1.152,1.152,0,0,0-1.154-1.148ZM15,3.662a1.046,1.046,0,1,1-1.049,1.043A1.05,1.05,0,0,1,15,3.662Zm0,2.719A13.069,13.069,0,0,1,28.049,19.137H1.951A13.069,13.069,0,0,1,15,6.381Zm5.455,22.992H9.545c3.187-1.687,3.961-5.391,4.271-7.16h2.373C16.494,23.982,17.268,27.686,20.455,29.373Zm7.611-7.781H1.934A1.308,1.308,0,0,1,.627,20.285a.529.529,0,0,1,.527-.527h27.7a.529.529,0,0,1,.527.527,1.317,1.317,0,0,1-1.312,1.307Z" fill="#686868"/>
      <path id="Path_21286" data-name="Path 21286" d="M24.152,4.734a1.081,1.081,0,0,0,.012,1.623.457.457,0,0,1,0,.691.311.311,0,0,0,.41.469,1.085,1.085,0,0,0,0-1.635.457.457,0,0,1,0-.691c.006,0,.006-.006.012-.006a1.085,1.085,0,0,0-.006-1.623.461.461,0,0,1,0-.691.311.311,0,0,0-.41-.469,1.083,1.083,0,0,0,0,1.629.461.461,0,0,1,0,.691.073.073,0,0,0-.018.012Z" fill="#686868"/>
      <path id="Path_21287" data-name="Path 21287" d="M25.705,4.037a.457.457,0,0,1,0,.691.311.311,0,1,0,.41.469,1.09,1.09,0,0,0,0-1.635.461.461,0,0,1,0-.691,1.083,1.083,0,0,0,0-1.629.461.461,0,0,1,0-.691.311.311,0,0,0-.41-.469,1.083,1.083,0,0,0,0,1.629.461.461,0,0,1,0,.691A1.081,1.081,0,0,0,25.705,4.037Z" fill="#686868"/>
      <path id="Path_21288" data-name="Path 21288" d="M27.246,6.357a.457.457,0,0,1,0,.691.311.311,0,0,0,.41.469,1.085,1.085,0,0,0,0-1.635.457.457,0,0,1,0-.691,1.083,1.083,0,0,0,0-1.629.461.461,0,0,1,0-.691.311.311,0,0,0-.41-.469,1.083,1.083,0,0,0,0,1.629.461.461,0,0,1,0,.691,1.085,1.085,0,0,0,0,1.635Z" fill="#686868"/>
      <path id="Path_21289" data-name="Path 21289" d="M2.344,6.357a.457.457,0,0,1,0,.691.311.311,0,0,0,.41.469,1.085,1.085,0,0,0,0-1.635.457.457,0,0,1,0-.691,1.083,1.083,0,0,0,0-1.629.461.461,0,0,1,0-.691.311.311,0,0,0-.41-.469,1.083,1.083,0,0,0,0,1.629.461.461,0,0,1,0,.691,1.085,1.085,0,0,0,0,1.635Z" fill="#686868"/>
      <path id="Path_21290" data-name="Path 21290" d="M3.885,4.037a.457.457,0,0,1,0,.691.311.311,0,0,0,.41.469,1.09,1.09,0,0,0,0-1.635.461.461,0,0,1,0-.691,1.083,1.083,0,0,0,0-1.629.457.457,0,0,1,0-.691.311.311,0,0,0-.41-.469,1.083,1.083,0,0,0,0,1.629.457.457,0,0,1,0,.691A1.09,1.09,0,0,0,3.885,4.037Z" fill="#686868"/>
      <path id="Path_21291" data-name="Path 21291" d="M5.432,6.357a.461.461,0,0,1,0,.691.311.311,0,0,0,.41.469,1.085,1.085,0,0,0,0-1.635.461.461,0,0,1,0-.691,1.083,1.083,0,0,0,0-1.629.461.461,0,0,1,0-.691.311.311,0,0,0-.41-.469,1.083,1.083,0,0,0,0,1.629.461.461,0,0,1,0,.691,1.085,1.085,0,0,0,0,1.635Z" fill="#686868"/>
    </g>
  </g>
</svg>
