<svg xmlns="http://www.w3.org/2000/svg" xmlns:xlink="http://www.w3.org/1999/xlink" width="30" height="30" viewBox="0 0 30 30">
  <defs>
    <clipPath id="clip-path">
      <rect id="Rectangle_4652" data-name="Rectangle 4652" width="30" height="30" transform="translate(296 135)" fill="none"/>
    </clipPath>
  </defs>
  <g id="Mask_Group_289" data-name="Mask Group 289" transform="translate(-296 -135)" clip-path="url(#clip-path)">
    <path id="factory-4" d="M29.491,14.128a1.746,1.746,0,0,0-1.43-.256l-.006-.01a3.217,3.217,0,0,0-.334-.481,1.859,1.859,0,0,0-2.041-.5,1.922,1.922,0,0,0-1.256,1.662,1.888,1.888,0,0,0-1.551,1.942,1.451,1.451,0,0,0-.7.979,1.7,1.7,0,0,0,.039.852H21.157a.306.306,0,0,0-.306.306v6.213a12.01,12.01,0,0,1-.6,3.734,15.252,15.252,0,0,1-1.317-6.211V14.592a.383.383,0,0,0-.382-.382h-1.28a.812.812,0,0,1,.678-.525,2.553,2.553,0,0,0,1.606-.8,3.055,3.055,0,0,0,2.043.459,2.643,2.643,0,0,0,1.981-1.056A.515.515,0,0,1,24,12.044a2.686,2.686,0,0,0,1.959-.866A2.811,2.811,0,0,0,23.1,6.541l-.015,0c-.034-.053-.066-.107-.1-.16a5.326,5.326,0,0,0-.555-.8,3,3,0,0,0-3.292-.8,3.071,3.071,0,0,0-2.027,2.755.762.762,0,0,0,0,.1.628.628,0,0,1-.1.021,3.036,3.036,0,0,0-2.583,3.175.306.306,0,0,1-.006.11.254.254,0,0,1-.078.051,2.28,2.28,0,0,0-1.131,1.564,2.706,2.706,0,0,0,.154,1.653H12.294a.382.382,0,0,0-.381.382v7.763A15.255,15.255,0,0,1,10.54,28.7a17.928,17.928,0,0,0-1.6,5.581.306.306,0,0,0,.306.306H28.583a.306.306,0,0,0,.306-.306,14.01,14.01,0,0,0-1.27-4.449,12.024,12.024,0,0,1-1.081-5V18.622a.306.306,0,0,0-.306-.306H24.922a.342.342,0,0,1,.127-.044,1.5,1.5,0,0,0,.926-.429,1.942,1.942,0,0,0,1.181.233,1.653,1.653,0,0,0,1.238-.667.171.171,0,0,1,.135-.085,1.68,1.68,0,0,0,1.224-.541,1.77,1.77,0,0,0-.263-2.656ZM13.81,12.69a1.666,1.666,0,0,1,.811-1.15.694.694,0,0,0,.418-.728A2.429,2.429,0,0,1,17.1,8.264a.639.639,0,0,0,.624-.712,2.488,2.488,0,0,1,1.626-2.2,2.387,2.387,0,0,1,2.62.632,4.8,4.8,0,0,1,.49.714c.075.122.151.249.231.373a.306.306,0,0,0,.367.118c.023-.009.061-.02.106-.033l.11-.034a2.2,2.2,0,0,1,2.234,3.633,2.081,2.081,0,0,1-1.515.673,1.117,1.117,0,0,0-.929.52,2.04,2.04,0,0,1-1.53.787,2.277,2.277,0,0,1-1.769-.468.306.306,0,0,0-.416-.014c-.721.624-.943.775-1.456.82a1.428,1.428,0,0,0-1.262,1.134H14.068a2.012,2.012,0,0,1-.257-1.522ZM9.569,33.975a19.026,19.026,0,0,1,1.527-5.02,15.842,15.842,0,0,0,1.428-6.594V14.822h5.793v7.536a15.864,15.864,0,0,0,1.427,6.6,18.77,18.77,0,0,1,1.53,5.02Zm17.493-3.888a15.126,15.126,0,0,1,1.2,3.888H21.876A17.454,17.454,0,0,0,20.6,29.408a12.63,12.63,0,0,0,.857-4.573V18.928h4.463v5.907a12.623,12.623,0,0,0,1.137,5.252Zm2.246-13.722a1.072,1.072,0,0,1-.781.348.77.77,0,0,0-.643.358,1.054,1.054,0,0,1-.79.4,1.211,1.211,0,0,1-.918-.233.306.306,0,0,0-.416-.015c-.419.363-.52.421-.766.442a.955.955,0,0,0-.812.654H22.874a1.065,1.065,0,0,1-.1-.721.835.835,0,0,1,.4-.575.526.526,0,0,0,.313-.541,1.275,1.275,0,0,1,1.077-1.338.5.5,0,0,0,.471-.535,1.3,1.3,0,0,1,.856-1.15,1.245,1.245,0,0,1,1.37.329,2.7,2.7,0,0,1,.269.393c.044.072.088.146.136.219a.361.361,0,0,0,.415.1l.067-.021a1.144,1.144,0,0,1,1.158,1.884Z" transform="translate(291.41 130.413)" fill="#686868"/>
  </g>
</svg>
