<svg xmlns="http://www.w3.org/2000/svg" xmlns:xlink="http://www.w3.org/1999/xlink" width="30" height="30" viewBox="0 0 30 30">
  <defs>
    <clipPath id="clip-path">
      <rect id="Rectangle_4654" data-name="Rectangle 4654" width="30" height="30" transform="translate(16)" fill="none"/>
    </clipPath>
  </defs>
  <g id="Mask_Group_298" data-name="Mask Group 298" transform="translate(-16)" clip-path="url(#clip-path)">
    <g id="engineering-2" transform="translate(15.533 -0.397)">
      <g id="Group_10034" data-name="Group 10034">
        <path id="Path_21312" data-name="Path 21312" d="M20.093,14.72l-1.729-.607a6.069,6.069,0,0,0-.607-1.4l.794-1.636a.414.414,0,0,0-.093-.514L16.449,8.551a.438.438,0,0,0-.514-.093L14.3,9.252c-.467-.234-.935-.421-1.4-.607L12.29,6.916a.449.449,0,0,0-.421-.327H9.019a.563.563,0,0,0-.467.327L7.944,8.645a6.069,6.069,0,0,0-1.4.607L4.953,8.411a.51.51,0,0,0-.561.093L2.383,10.514a.438.438,0,0,0-.093.514l.794,1.636a8.771,8.771,0,0,0-.561,1.4l-1.729.607a.563.563,0,0,0-.327.467v2.85a.563.563,0,0,0,.327.467l1.729.607a6.069,6.069,0,0,0,.607,1.4L2.336,22.1a.5.5,0,0,0,.093.561l2.009,2.009A.5.5,0,0,0,5,24.766l1.636-.794c.467.234.935.421,1.4.607l.607,1.729a.449.449,0,0,0,.421.327h2.85a.449.449,0,0,0,.421-.327l.607-1.729a6.069,6.069,0,0,0,1.4-.607l1.636.794a.427.427,0,0,0,.514-.093L18.5,22.664A.5.5,0,0,0,18.6,22.1l-.841-1.682c.234-.467.421-.935.607-1.4l1.729-.607a.464.464,0,0,0,.327-.467v-2.85a.443.443,0,0,0-.327-.374Zm-9.673,5.841a3.972,3.972,0,1,1,3.972-3.972A3.969,3.969,0,0,1,10.421,20.561Z" fill="#686868"/>
      </g>
      <g id="Group_10035" data-name="Group 10035">
        <path id="Path_21313" data-name="Path 21313" d="M30.047,5.421l-.935-.327c-.093-.234-.187-.467-.28-.654l.421-.888a.51.51,0,0,0-.093-.561L28.037,1.822a.438.438,0,0,0-.514-.093l-.888.421c-.234-.093-.421-.187-.654-.28L25.654.935a.449.449,0,0,0-.421-.327H23.551a.563.563,0,0,0-.467.327l-.327.935c-.234.093-.467.187-.654.28l-.888-.421a.5.5,0,0,0-.561.093L19.486,2.991a.5.5,0,0,0-.093.561l.421.888c-.093.234-.187.421-.28.654l-.935.327a.449.449,0,0,0-.327.421V7.523a.449.449,0,0,0,.327.421l.935.327.28.7-.421.841a.5.5,0,0,0,.093.561l1.168,1.168a.5.5,0,0,0,.561.093l.888-.421c.234.093.467.187.654.28l.327.935a.464.464,0,0,0,.467.327h1.682a.449.449,0,0,0,.421-.327l.327-.935c.234-.093.467-.187.654-.28l.888.421a.51.51,0,0,0,.561-.093l1.168-1.168a.5.5,0,0,0,.093-.561l-.421-.888.28-.7L30.14,7.9a.449.449,0,0,0,.327-.421V5.794a.825.825,0,0,0-.421-.374Zm-5.7,3.6a2.314,2.314,0,0,1-2.336-2.336,2.336,2.336,0,1,1,2.336,2.336Z" fill="#686868"/>
      </g>
      <g id="Group_10036" data-name="Group 10036">
        <path id="Path_21314" data-name="Path 21314" d="M30.047,20.654l-1.308-.467a3.966,3.966,0,0,0-.421-1.028l.607-1.262a.427.427,0,0,0-.093-.514l-1.589-1.589a.5.5,0,0,0-.561-.093l-1.215.654a4.768,4.768,0,0,0-1.028-.421l-.421-1.308a.464.464,0,0,0-.467-.327H21.308a.421.421,0,0,0-.234.047,1.575,1.575,0,0,1,.234.794v2.85a1.361,1.361,0,0,1-.935,1.308l-1.308.467c-.093.234-.187.467-.28.654l.607,1.215a1.36,1.36,0,0,1-.28,1.636L17.1,25.28a1.473,1.473,0,0,1-.794.421l-.421.841a.427.427,0,0,0,.093.514l1.589,1.589a.5.5,0,0,0,.561.093l1.262-.607a4.768,4.768,0,0,0,1.028.421l.467,1.308a.464.464,0,0,0,.467.327H23.6a.563.563,0,0,0,.467-.327l.421-1.308c.374-.14.7-.28,1.028-.421l1.262.607a.51.51,0,0,0,.561-.093l1.589-1.589a.438.438,0,0,0,.093-.514l-.607-1.262a4.768,4.768,0,0,0,.421-1.028l1.308-.467a.464.464,0,0,0,.327-.467V21.075a.917.917,0,0,0-.421-.421Zm-7.15,4.72a3.131,3.131,0,1,1,3.131-3.131A3.131,3.131,0,0,1,22.9,25.374Z" fill="#686868"/>
      </g>
    </g>
  </g>
</svg>
