<svg xmlns="http://www.w3.org/2000/svg" xmlns:xlink="http://www.w3.org/1999/xlink" width="30" height="30" viewBox="0 0 30 30">
  <defs>
    <clipPath id="clip-path">
      <rect id="Rectangle_4645" data-name="Rectangle 4645" width="30" height="30" transform="translate(1830 35)" fill="#696969"/>
    </clipPath>
  </defs>
  <g id="Mask_Group_281" data-name="Mask Group 281" transform="translate(-1830 -35)" clip-path="url(#clip-path)">
    <g id="login" transform="translate(1824.429 29.429)">
      <path id="Path_21272" data-name="Path 21272" d="M20.571,5.571a1.286,1.286,0,0,0,0,2.571,12.429,12.429,0,1,1,0,24.857,1.286,1.286,0,0,0,0,2.571,15,15,0,1,0,0-30Z" fill="#696969"/>
      <path id="Path_21273" data-name="Path 21273" d="M17.948,16.338a1.286,1.286,0,1,1,1.818-1.818l5.143,5.143a1.286,1.286,0,0,1,0,1.818l-5.143,5.143a1.286,1.286,0,1,1-1.818-1.818L20.9,21.857H6.857a1.286,1.286,0,1,1,0-2.571H20.9Z" fill="#696969"/>
    </g>
  </g>
</svg>
