<svg xmlns="http://www.w3.org/2000/svg" xmlns:xlink="http://www.w3.org/1999/xlink" width="30" height="30" viewBox="0 0 30 30">
  <defs>
    <clipPath id="clip-path">
      <rect id="Rectangle_4652" data-name="Rectangle 4652" width="30" height="30" transform="translate(293 135)" fill="none"/>
    </clipPath>
  </defs>
  <g id="Mask_Group_291" data-name="Mask Group 291" transform="translate(-293 -135)" clip-path="url(#clip-path)">
    <g id="Layer_1_5_" transform="translate(291.597 133.597)">
      <path id="Path_21293" data-name="Path 21293" d="M2.183,26.189l19.912,3.517V20.238L2.183,17.43Zm20.3,4.371a.384.384,0,0,1-.068-.006L1.725,26.9a.39.39,0,0,1-.322-.384V16.982a.39.39,0,0,1,.444-.386l20.691,2.918a.39.39,0,0,1,.335.386V30.17a.39.39,0,0,1-.39.39Z" fill="#686868" fill-rule="evenodd"/>
      <path id="Path_21294" data-name="Path 21294" d="M22.874,20.144v9.405l7.75-3.75V16.393Zm-.39,10.416a.39.39,0,0,1-.39-.39V19.9a.39.39,0,0,1,.22-.351l8.529-4.127a.39.39,0,0,1,.559.351V26.043a.39.39,0,0,1-.22.351l-8.53,4.127a.393.393,0,0,1-.17.039Z" fill="#686868" fill-rule="evenodd"/>
      <path id="Path_21295" data-name="Path 21295" d="M7.824,9.321l5.673.738,1.892-.752a.381.381,0,0,1,.09-.024l7.758-1.073,1.656-3.665L5.746,3.044,4.015,5.975,7.562,8.381a.39.39,0,0,1,.167.268Zm5.723,1.527a.385.385,0,0,1-.05,0l-6.067-.789a.39.39,0,0,1-.336-.332l-.112-.795L3.275,6.414a.389.389,0,0,1-.117-.52L5.2,2.438a.39.39,0,0,1,.366-.19L25.507,3.812a.39.39,0,0,1,.325.549L23.86,8.728a.391.391,0,0,1-.3.225l-7.925,1.1-1.942.772a.394.394,0,0,1-.144.027Z" fill="#686868" fill-rule="evenodd"/>
      <path id="Path_21296" data-name="Path 21296" d="M12.486,13.068,30.354,15.3,25.487,5.125l-1.627,3.6a.391.391,0,0,1-.3.226l-7.925,1.1-1.942.772a.387.387,0,0,1-.194.024l-2.214-.288Zm18.527,3.094a.4.4,0,0,1-.048,0L12.179,13.815a.39.39,0,0,1-.3-.218L10.27,10.246a.389.389,0,0,1,.4-.555l2.825.367,1.892-.752a.381.381,0,0,1,.09-.024l7.758-1.073L25.122,4.04a.39.39,0,0,1,.351-.229h0a.39.39,0,0,1,.352.221L31.365,15.6a.39.39,0,0,1-.352.558Z" fill="#686868" fill-rule="evenodd"/>
      <path id="Path_21297" data-name="Path 21297" d="M3.465,16.824,22.421,19.5,29.657,16l-17.39-2.169Zm19.019,3.465a.388.388,0,0,1-.054,0L1.739,17.368a.39.39,0,0,1-.071-.755L12.1,13.06a.388.388,0,0,1,.174-.018l18.787,2.344a.39.39,0,0,1,.122.737l-8.53,4.127a.39.39,0,0,1-.17.039Z" fill="#686868" fill-rule="evenodd"/>
    </g>
  </g>
</svg>
