<svg xmlns="http://www.w3.org/2000/svg" xmlns:xlink="http://www.w3.org/1999/xlink" width="30" height="30" viewBox="0 0 30 30">
  <defs>
    <clipPath id="clip-path">
      <rect id="Rectangle_4654" data-name="Rectangle 4654" width="30" height="30" transform="translate(20)" fill="none"/>
    </clipPath>
  </defs>
  <g id="Mask_Group_297" data-name="Mask Group 297" transform="translate(-20)" clip-path="url(#clip-path)">
    <path id="package-2" d="M26.266,4.33c-.944-.5-1.921-.979-2.91-1.433A131.451,131.451,0,0,0,10.263,7.89a2.6,2.6,0,0,0-1.549,2.266c-.072,2.227-.094,4.525-.065,6.8a.312.312,0,0,1-.563.2q-.731-.937-1.431-1.854a.234.234,0,0,0-.311-.064q-.543.322-1.067.636a.3.3,0,0,1-.438-.28c-.012-2.263.045-4.533.166-6.732A2.694,2.694,0,0,1,6.5,6.627a102.977,102.977,0,0,1,13.173-5.29c-.937-.367-1.87-.7-2.78-1.022a5.829,5.829,0,0,0-3.786,0A67.481,67.481,0,0,0,3.734,4.33,5.69,5.69,0,0,0,.756,9.182Q.575,15,.756,20.818A5.686,5.686,0,0,0,3.734,25.67a67.387,67.387,0,0,0,9.375,4.014,5.829,5.829,0,0,0,3.786,0A67.557,67.557,0,0,0,26.27,25.67a5.691,5.691,0,0,0,2.978-4.852q.18-5.818,0-11.637A5.7,5.7,0,0,0,26.266,4.33Z" transform="translate(19.998 0)" fill="#686868"/>
  </g>
</svg>
